# Blender v2.70 (sub 0) OBJ File: 'manipulator2.blend'
# www.blender.org
mtllib manipulator.mtl
o manipulator
v 0.239831 0.000000 -1.978173
v 0.239824 0.000000 1.978173
v 0.235223 -0.046788 -1.978173
v 0.235216 -0.046788 1.978173
v 0.221575 -0.091778 -1.978173
v 0.221568 -0.091778 1.978173
v 0.199413 -0.133241 -1.978173
v 0.199406 -0.133241 1.978173
v 0.169587 -0.169584 -1.978173
v 0.169581 -0.169584 1.978173
v 0.133245 -0.199409 -1.978173
v 0.133238 -0.199409 1.978173
v 0.091782 -0.221572 -1.978173
v 0.091775 -0.221572 1.978173
v 0.046792 -0.235219 -1.978173
v 0.046785 -0.235219 1.978173
v 0.000004 -0.239828 -1.978173
v -0.000003 -0.239828 1.978173
v -0.046784 -0.235219 -1.978173
v -0.046791 -0.235219 1.978173
v -0.091774 -0.221572 -1.978173
v -0.091781 -0.221572 1.978173
v -0.133238 -0.199410 -1.978173
v -0.133244 -0.199410 1.978173
v -0.169580 -0.169584 -1.978173
v -0.169587 -0.169584 1.978173
v -0.199406 -0.133241 -1.978173
v -0.199413 -0.133241 1.978173
v -0.221568 -0.091778 -1.978173
v -0.221575 -0.091778 1.978173
v -0.235216 -0.046788 -1.978173
v -0.235223 -0.046788 1.978173
v -0.239824 -0.000000 -1.978173
v -0.239831 -0.000000 1.978173
v -0.235216 0.046788 -1.978173
v -0.235223 0.046788 1.978173
v -0.221569 0.091778 -1.978173
v -0.221575 0.091778 1.978173
v -0.199406 0.133241 -1.978173
v -0.199413 0.133241 1.978173
v -0.169581 0.169584 -1.978173
v -0.169587 0.169584 1.978173
v -0.133238 0.199409 -1.978173
v -0.133245 0.199409 1.978173
v -0.091775 0.221572 -1.978173
v -0.091782 0.221572 1.978173
v -0.046785 0.235219 -1.978173
v -0.046792 0.235219 1.978173
v 0.000003 0.239828 -1.978173
v -0.000003 0.239828 1.978173
v 0.046791 0.235219 -1.978173
v 0.046785 0.235219 1.978173
v 0.091781 0.221572 -1.978173
v 0.091775 0.221572 1.978173
v 0.133244 0.199409 -1.978173
v 0.133238 0.199409 1.978173
v 0.169587 0.169584 -1.978173
v 0.169580 0.169584 1.978173
v 0.199413 0.133241 -1.978173
v 0.199406 0.133241 1.978173
v 0.221575 0.091778 -1.978173
v 0.221568 0.091778 1.978173
v 0.235223 0.046788 -1.978173
v 0.235216 0.046788 1.978173
vn 0.995185 -0.098017 0.000002
vn 0.956941 -0.290284 0.000002
vn 0.881922 -0.471396 0.000002
vn 0.773011 -0.634392 0.000001
vn 0.634394 -0.773010 0.000001
vn 0.471397 -0.881921 0.000001
vn 0.290286 -0.956940 0.000001
vn 0.098019 -0.995185 0.000000
vn -0.098016 -0.995185 -0.000000
vn -0.290284 -0.956941 -0.000000
vn -0.471395 -0.881922 -0.000001
vn -0.634393 -0.773011 -0.000001
vn -0.773010 -0.634394 -0.000001
vn -0.881921 -0.471398 -0.000002
vn -0.956940 -0.290286 -0.000002
vn -0.995185 -0.098018 -0.000002
vn -0.995185 0.098018 -0.000002
vn -0.956941 0.290284 -0.000002
vn -0.881921 0.471396 -0.000002
vn -0.773011 0.634393 -0.000001
vn -0.634393 0.773010 -0.000001
vn -0.471397 0.881921 -0.000001
vn -0.290285 0.956940 -0.000001
vn -0.098017 0.995185 -0.000000
vn 0.098017 0.995185 0.000000
vn 0.290285 0.956940 0.000000
vn 0.471397 0.881921 0.000001
vn 0.634394 0.773010 0.000001
vn 0.773011 0.634393 0.000001
vn 0.881921 0.471397 0.000002
vn -0.000001 0.000000 1.000000
vn 0.995185 0.098017 0.000002
vn 0.956940 0.290284 0.000002
vn 0.000001 -0.000000 -1.000000
vn 0.773012 -0.634392 0.000001
vn -0.773009 -0.634394 -0.000001
vn -0.881921 -0.471397 -0.000002
vn -0.956940 -0.290285 -0.000002
vn -0.881922 0.471396 -0.000002
vn -0.290285 0.956940 -0.000000
vn 0.881921 0.471396 0.000002
vn 0.000010 0.000002 1.000000
vn -0.000004 -0.000001 1.000000
vn -0.000001 0.000001 1.000000
vn -0.000009 0.000011 1.000000
vn -0.000009 0.000000 1.000000
vn -0.000005 -0.000013 1.000000
vn -0.000019 0.000000 1.000000
vn 0.000002 0.000000 1.000000
vn -0.000015 -0.000001 1.000000
vn -0.000003 0.000000 1.000000
vn -0.000023 -0.000006 1.000000
vn 0.000005 -0.000010 1.000000
vn -0.000002 -0.000013 1.000000
vn -0.000002 -0.000002 1.000000
vn -0.000004 0.000008 1.000000
vn -0.000002 0.000001 1.000000
vn -0.000005 -0.000000 1.000000
vn -0.000003 -0.000002 1.000000
vn -0.000003 -0.000005 1.000000
vn 0.000041 -0.000010 1.000000
vn 0.956941 0.290284 0.000002
vn 0.000003 -0.000004 1.000000
vn 0.000003 0.000000 1.000000
vn -0.000002 0.000000 1.000000
vn -0.000011 0.000001 1.000000
vn -0.000003 0.000005 1.000000
vn 0.000011 0.000000 -1.000000
vn -0.000007 -0.000001 -1.000000
vn -0.000015 -0.000008 -1.000000
vn 0.000007 -0.000001 -1.000000
vn 0.000000 0.000013 -1.000000
vn 0.000005 0.000000 -1.000000
vn -0.000005 -0.000000 -1.000000
vn 0.000002 0.000001 -1.000000
vn 0.000041 0.000000 -1.000000
vn -0.000013 0.000010 -1.000000
vn -0.000003 0.000013 -1.000000
vn 0.000000 -0.000005 -1.000000
vn 0.000004 0.000008 -1.000000
vn -0.000003 -0.000006 -1.000000
vn 0.000011 0.000006 -1.000000
vn 0.000004 -0.000000 -1.000000
vn 0.000008 0.000010 -1.000000
vn -0.000002 -0.000000 -1.000000
vn 0.000003 -0.000001 -1.000000
vn 0.000002 -0.000000 -1.000000
vn 0.000000 -0.000000 -1.000000
vn 0.000003 0.000000 -1.000000
vn 0.000008 0.000004 -1.000000
vn 0.000000 0.000005 -1.000000
vn -0.000008 0.000003 -1.000000
usemtl None
s off
f 2//1 4//1 3//1
f 4//2 6//2 5//2
f 6//3 8//3 7//3
f 7//4 8//4 10//4
f 10//5 12//5 11//5
f 12//6 14//6 13//6
f 14//7 16//7 15//7
f 16//8 18//8 17//8
f 18//9 20//9 19//9
f 20//10 22//10 21//10
f 22//11 24//11 23//11
f 24//12 26//12 25//12
f 26//13 28//13 27//13
f 28//14 30//14 29//14
f 30//15 32//15 31//15
f 32//16 34//16 33//16
f 34//17 36//17 35//17
f 36//18 38//18 37//18
f 38//19 40//19 39//19
f 40//20 42//20 41//20
f 42//21 44//21 43//21
f 44//22 46//22 45//22
f 46//23 48//23 47//23
f 48//24 50//24 49//24
f 50//25 52//25 51//25
f 52//26 54//26 53//26
f 54//27 56//27 55//27
f 55//28 56//28 58//28
f 58//29 60//29 59//29
f 60//30 62//30 61//30
f 36//31 6//31 50//31
f 64//32 2//32 1//32
f 62//33 64//33 63//33
f 31//34 55//34 15//34
f 1//1 2//1 3//1
f 3//2 4//2 5//2
f 5//3 6//3 7//3
f 9//35 7//35 10//35
f 9//5 10//5 11//5
f 11//6 12//6 13//6
f 13//7 14//7 15//7
f 15//8 16//8 17//8
f 17//9 18//9 19//9
f 19//10 20//10 21//10
f 21//11 22//11 23//11
f 23//12 24//12 25//12
f 25//36 26//36 27//36
f 27//37 28//37 29//37
f 29//38 30//38 31//38
f 31//16 32//16 33//16
f 33//17 34//17 35//17
f 35//18 36//18 37//18
f 37//39 38//39 39//39
f 39//20 40//20 41//20
f 41//21 42//21 43//21
f 43//22 44//22 45//22
f 45//40 46//40 47//40
f 47//24 48//24 49//24
f 49//25 50//25 51//25
f 51//26 52//26 53//26
f 53//27 54//27 55//27
f 57//28 55//28 58//28
f 57//29 58//29 59//29
f 59//41 60//41 61//41
f 62//42 60//42 2//42
f 2//43 64//43 62//43
f 58//44 4//44 60//44
f 58//45 56//45 54//45
f 54//46 52//46 50//46
f 50//47 48//47 46//47
f 40//48 38//48 36//48
f 60//49 4//49 2//49
f 6//50 4//50 58//50
f 30//51 36//51 32//51
f 30//52 28//52 26//52
f 26//53 24//53 22//53
f 18//54 16//54 20//54
f 14//55 22//55 16//55
f 10//56 8//56 12//56
f 6//57 14//57 8//57
f 36//58 30//58 26//58
f 54//59 50//59 58//59
f 46//60 44//60 50//60
f 44//61 42//61 40//61
f 63//32 64//32 1//32
f 22//31 36//31 26//31
f 61//62 62//62 63//62
f 8//63 14//63 12//63
f 50//44 44//44 36//44
f 36//64 34//64 32//64
f 36//65 14//65 6//65
f 44//66 40//66 36//66
f 36//31 22//31 14//31
f 16//67 22//67 20//67
f 50//31 6//31 58//31
f 63//68 1//68 3//68
f 7//69 13//69 5//69
f 7//70 9//70 11//70
f 15//71 3//71 13//71
f 15//72 17//72 19//72
f 49//73 39//73 43//73
f 49//74 51//74 53//74
f 31//75 25//75 29//75
f 31//76 33//76 35//76
f 35//34 37//34 39//34
f 39//77 41//77 43//77
f 47//78 49//78 45//78
f 15//79 19//79 21//79
f 55//80 49//80 53//80
f 59//34 15//34 57//34
f 59//81 61//81 63//81
f 25//82 27//82 29//82
f 15//83 55//83 57//83
f 23//84 25//84 21//84
f 25//85 31//85 21//85
f 39//86 49//86 35//86
f 31//87 49//87 55//87
f 63//88 3//88 59//88
f 3//87 15//87 59//87
f 15//89 21//89 31//89
f 7//90 11//90 13//90
f 49//91 43//91 45//91
f 13//92 3//92 5//92
f 49//34 31//34 35//34
