# Blender v2.70 (sub 0) OBJ File: 'pad.blend'
# www.blender.org
mtllib pad.mtl
o pad
v -1.000000 -0.614588 0.563885
v -1.000000 -0.614588 -0.563885
v 1.000000 -0.614588 -0.563885
v 1.000000 -0.614588 0.563885
v -1.000000 0.614588 0.563885
v -1.000000 0.614588 -0.563885
v 1.000000 0.614588 -0.563885
v 1.000000 0.614588 0.563885
v 0.000000 0.614588 -0.563885
v 0.000000 -0.614588 -0.563885
v 0.000000 0.614588 -0.179906
v 0.000000 -0.614588 -0.179906
v 0.500000 0.614588 -0.563885
v 0.500000 -0.614588 -0.179906
v 0.500000 -0.614588 -0.563885
v 0.500000 0.614588 -0.179906
v -0.500000 -0.614588 -0.563885
v -0.500000 0.614588 -0.179906
v -0.500000 0.614588 -0.563885
v -0.500000 -0.614588 -0.179906
v -0.750000 -0.614588 -0.563885
v -0.750000 0.614588 0.563885
v -0.750000 0.614588 -0.563885
v -0.750000 -0.614588 0.563885
v 0.750000 0.614588 -0.563885
v 0.750000 -0.614588 0.563885
v 0.750000 -0.614588 -0.563885
v 0.750000 0.614588 0.563885
vn -1.000000 0.000000 0.000000
vn -0.000000 0.000000 -1.000000
vn 1.000000 0.000000 0.000000
vn 0.000000 0.000000 1.000000
vn 0.000000 -1.000000 0.000000
vn 0.000000 1.000000 0.000000
vn -0.947889 -0.000000 0.318601
vn 0.947889 -0.000000 0.318601
usemtl None
s off
f 6//1 2//1 1//1
f 7//2 3//2 27//2
f 8//3 4//3 3//3
f 5//4 1//4 24//4
f 27//5 3//5 4//5
f 23//6 6//6 5//6
f 9//2 10//2 17//2
f 11//4 12//4 14//4
f 17//5 10//5 12//5
f 13//6 9//6 11//6
f 13//2 15//2 10//2
f 10//5 15//5 14//5
f 16//7 14//7 26//7
f 28//6 25//6 13//6
f 18//4 20//4 12//4
f 9//6 19//6 18//6
f 19//2 17//2 21//2
f 24//5 21//5 17//5
f 22//8 24//8 20//8
f 19//6 23//6 22//6
f 23//2 21//2 2//2
f 2//5 21//5 24//5
f 25//2 27//2 15//2
f 15//5 27//5 26//5
f 28//4 26//4 4//4
f 7//6 25//6 28//6
f 5//1 6//1 1//1
f 25//2 7//2 27//2
f 7//3 8//3 3//3
f 22//4 5//4 24//4
f 26//5 27//5 4//5
f 22//6 23//6 5//6
f 19//2 9//2 17//2
f 16//4 11//4 14//4
f 20//5 17//5 12//5
f 16//6 13//6 11//6
f 9//2 13//2 10//2
f 12//5 10//5 14//5
f 28//7 16//7 26//7
f 16//6 28//6 13//6
f 11//4 18//4 12//4
f 11//6 9//6 18//6
f 23//2 19//2 21//2
f 20//5 24//5 17//5
f 18//8 22//8 20//8
f 18//6 19//6 22//6
f 6//2 23//2 2//2
f 1//5 2//5 24//5
f 13//2 25//2 15//2
f 14//5 15//5 26//5
f 8//4 28//4 4//4
f 8//6 7//6 28//6
