# Blender v2.70 (sub 0) OBJ File: ''
# www.blender.org
mtllib przegub1.mtl
o przegub1
v 0.000000 -1.000000 -1.000000
v 0.000000 1.000000 -1.000000
v 0.130526 -1.000000 -0.991445
v 0.130526 1.000000 -0.991445
v 0.258819 -1.000000 -0.965926
v 0.258819 1.000000 -0.965926
v 0.382683 -1.000000 -0.923880
v 0.382683 1.000000 -0.923880
v 0.500000 -1.000000 -0.866025
v 0.500000 1.000000 -0.866025
v 0.608761 -1.000000 -0.793353
v 0.608761 1.000000 -0.793353
v 0.707107 -1.000000 -0.707107
v 0.707107 1.000000 -0.707107
v 0.793353 -1.000000 -0.608761
v 0.793353 1.000000 -0.608761
v 0.866025 -1.000000 -0.500000
v 0.866025 1.000000 -0.500000
v 0.923880 -1.000000 -0.382684
v 0.923880 1.000000 -0.382684
v 0.965926 -1.000000 -0.258819
v 0.965926 1.000000 -0.258819
v 0.991445 -1.000000 -0.130526
v 0.991445 1.000000 -0.130526
v 1.000000 -1.000000 -0.000000
v 1.000000 1.000000 -0.000000
v 0.991445 -1.000000 0.130526
v 0.991445 1.000000 0.130526
v 0.965926 -1.000000 0.258819
v 0.965926 1.000000 0.258819
v 0.923880 -1.000000 0.382683
v 0.923880 1.000000 0.382683
v 0.866026 -1.000000 0.500000
v 0.866026 1.000000 0.500000
v 0.793353 -1.000000 0.608761
v 0.793353 1.000000 0.608761
v 0.707107 -1.000000 0.707107
v 0.707107 1.000000 0.707107
v 0.608762 -1.000000 0.793353
v 0.608762 1.000000 0.793353
v 0.500000 -1.000000 0.866025
v 0.500000 1.000000 0.866025
v 0.382684 -1.000000 0.923879
v 0.382684 1.000000 0.923879
v 0.258819 -1.000000 0.965926
v 0.258819 1.000000 0.965926
v 0.130527 -1.000000 0.991445
v 0.130527 1.000000 0.991445
v 0.000000 -1.000000 1.000000
v 0.000000 1.000000 1.000000
v -0.130526 -1.000000 0.991445
v -0.130526 1.000000 0.991445
v -0.258819 -1.000000 0.965926
v -0.258819 1.000000 0.965926
v -0.382683 -1.000000 0.923880
v -0.382683 1.000000 0.923880
v -0.500000 -1.000000 0.866026
v -0.500000 1.000000 0.866026
v -0.608761 -1.000000 0.793354
v -0.608761 1.000000 0.793354
v -0.707106 -1.000000 0.707107
v -0.707106 1.000000 0.707107
v -0.793353 -1.000000 0.608762
v -0.793353 1.000000 0.608762
v -0.866025 -1.000000 0.500000
v -0.866025 1.000000 0.500000
v -0.923880 -1.000000 0.382684
v -0.923880 1.000000 0.382684
v -0.965926 -1.000000 0.258819
v -0.965926 1.000000 0.258819
v -0.991445 -1.000000 0.130526
v -0.991445 1.000000 0.130526
v -1.000000 -1.000000 -0.000000
v -1.000000 1.000000 -0.000000
v -0.991445 -1.000000 -0.130527
v -0.991445 1.000000 -0.130527
v -0.965926 -1.000000 -0.258820
v -0.965926 1.000000 -0.258820
v -0.923879 -1.000000 -0.382684
v -0.923879 1.000000 -0.382684
v -0.866025 -1.000000 -0.500001
v -0.866025 1.000000 -0.500001
v -0.793352 -1.000000 -0.608763
v -0.793352 1.000000 -0.608763
v -0.707106 -1.000000 -0.707108
v -0.707106 1.000000 -0.707108
v -0.608760 -1.000000 -0.793355
v -0.608760 1.000000 -0.793355
v -0.499998 -1.000000 -0.866027
v -0.499998 1.000000 -0.866027
v -0.382681 -1.000000 -0.923880
v -0.382681 1.000000 -0.923880
v -0.258817 -1.000000 -0.965927
v -0.258817 1.000000 -0.965927
v -0.130523 -1.000000 -0.991445
v -0.130523 1.000000 -0.991445
vn 0.065402 0.000000 -0.997859
vn 0.195091 0.000000 -0.980785
vn 0.321440 -0.000000 -0.946930
vn 0.442288 0.000000 -0.896873
vn 0.555571 0.000000 -0.831469
vn 0.659346 0.000000 -0.751840
vn 0.751840 0.000000 -0.659346
vn 0.831470 -0.000000 -0.555570
vn 0.896873 0.000000 -0.442289
vn 0.946930 -0.000000 -0.321440
vn 0.980785 -0.000000 -0.195090
vn 0.997859 0.000000 -0.065403
vn 0.997859 0.000000 0.065403
vn 0.980785 0.000000 0.195090
vn 0.946930 -0.000000 0.321439
vn 0.896873 0.000000 0.442288
vn 0.831470 0.000000 0.555570
vn 0.751840 -0.000000 0.659346
vn 0.659346 0.000000 0.751840
vn 0.555570 -0.000000 0.831470
vn 0.442289 0.000000 0.896873
vn 0.321440 -0.000000 0.946930
vn 0.195091 -0.000000 0.980785
vn 0.065403 -0.000000 0.997859
vn -0.065403 0.000000 0.997859
vn -0.195090 0.000000 0.980785
vn -0.321439 -0.000000 0.946930
vn -0.442288 -0.000000 0.896873
vn -0.555569 -0.000000 0.831470
vn -0.659345 0.000000 0.751840
vn -0.751839 -0.000000 0.659346
vn -0.831470 0.000000 0.555570
vn -0.896872 -0.000000 0.442289
vn -0.946930 0.000000 0.321440
vn -0.980785 0.000000 0.195090
vn -0.997859 0.000000 0.065403
vn -0.997859 0.000000 -0.065404
vn -0.980785 0.000000 -0.195091
vn -0.946930 -0.000000 -0.321440
vn -0.896872 -0.000000 -0.442290
vn -0.831469 -0.000000 -0.555571
vn -0.751838 -0.000000 -0.659348
vn -0.659345 0.000000 -0.751841
vn -0.555568 -0.000000 -0.831471
vn -0.442287 -0.000000 -0.896874
vn -0.321437 -0.000000 -0.946931
vn 0.000000 1.000000 0.000000
vn -0.065401 0.000000 -0.997859
vn -0.195088 0.000000 -0.980786
vn 0.000000 -1.000000 0.000000
vn 0.065403 0.000000 -0.997859
vn 0.442289 0.000000 -0.896873
vn 0.555570 0.000000 -0.831470
vn 0.555570 -0.000000 0.831469
vn -0.555570 -0.000000 0.831470
vn -0.751838 -0.000000 -0.659347
vn 0.000000 1.000000 -0.000013
vn 0.000000 1.000000 -0.000002
vn 0.000000 1.000000 -0.000001
vn 0.000000 1.000000 -0.000004
vn 0.000000 1.000000 0.000001
vn -0.065402 0.000000 -0.997859
vn 0.000000 -1.000000 -0.000002
vn 0.000000 -1.000000 0.000001
vn 0.000000 -1.000000 -0.000001
vn 0.000000 -1.000000 0.000013
usemtl None
s off
f 2//1 4//1 3//1
f 4//2 6//2 5//2
f 6//3 8//3 7//3
f 8//4 10//4 9//4
f 10//5 12//5 11//5
f 12//6 14//6 13//6
f 14//7 16//7 15//7
f 16//8 18//8 17//8
f 18//9 20//9 19//9
f 20//10 22//10 21//10
f 22//11 24//11 23//11
f 24//12 26//12 25//12
f 26//13 28//13 27//13
f 28//14 30//14 29//14
f 30//15 32//15 31//15
f 32//16 34//16 33//16
f 34//17 36//17 35//17
f 36//18 38//18 37//18
f 38//19 40//19 39//19
f 40//20 42//20 41//20
f 42//21 44//21 43//21
f 44//22 46//22 45//22
f 46//23 48//23 47//23
f 48//24 50//24 49//24
f 50//25 52//25 51//25
f 52//26 54//26 53//26
f 54//27 56//27 55//27
f 56//28 58//28 57//28
f 58//29 60//29 59//29
f 60//30 62//30 61//30
f 62//31 64//31 63//31
f 64//32 66//32 65//32
f 66//33 68//33 67//33
f 68//34 70//34 69//34
f 70//35 72//35 71//35
f 72//36 74//36 73//36
f 74//37 76//37 75//37
f 76//38 78//38 77//38
f 78//39 80//39 79//39
f 80//40 82//40 81//40
f 82//41 84//41 83//41
f 84//42 86//42 85//42
f 86//43 88//43 87//43
f 88//44 90//44 89//44
f 90//45 92//45 91//45
f 92//46 94//46 93//46
f 70//47 38//47 6//47
f 96//48 2//48 1//48
f 94//49 96//49 95//49
f 95//50 55//50 79//50
f 1//51 2//51 3//51
f 3//2 4//2 5//2
f 5//3 6//3 7//3
f 7//52 8//52 9//52
f 9//53 10//53 11//53
f 11//6 12//6 13//6
f 13//7 14//7 15//7
f 15//8 16//8 17//8
f 17//9 18//9 19//9
f 19//10 20//10 21//10
f 21//11 22//11 23//11
f 23//12 24//12 25//12
f 25//13 26//13 27//13
f 27//14 28//14 29//14
f 29//15 30//15 31//15
f 31//16 32//16 33//16
f 33//17 34//17 35//17
f 35//18 36//18 37//18
f 37//19 38//19 39//19
f 39//54 40//54 41//54
f 41//21 42//21 43//21
f 43//22 44//22 45//22
f 45//23 46//23 47//23
f 47//24 48//24 49//24
f 49//25 50//25 51//25
f 51//26 52//26 53//26
f 53//27 54//27 55//27
f 55//28 56//28 57//28
f 57//55 58//55 59//55
f 59//30 60//30 61//30
f 61//31 62//31 63//31
f 63//32 64//32 65//32
f 65//33 66//33 67//33
f 67//34 68//34 69//34
f 69//35 70//35 71//35
f 71//36 72//36 73//36
f 73//37 74//37 75//37
f 75//38 76//38 77//38
f 77//39 78//39 79//39
f 79//40 80//40 81//40
f 81//41 82//41 83//41
f 83//56 84//56 85//56
f 85//43 86//43 87//43
f 87//44 88//44 89//44
f 89//45 90//45 91//45
f 91//46 92//46 93//46
f 6//47 4//47 2//47
f 94//57 92//57 96//57
f 90//47 86//47 92//47
f 90//47 88//47 86//47
f 86//47 84//47 82//47
f 82//47 80//47 78//47
f 78//47 76//47 74//47
f 70//47 78//47 72//47
f 70//47 68//47 66//47
f 66//47 64//47 62//47
f 58//47 66//47 60//47
f 54//47 66//47 56//47
f 54//58 52//58 50//58
f 50//47 48//47 46//47
f 42//47 38//47 44//47
f 42//47 40//47 38//47
f 12//47 18//47 16//47
f 30//47 36//47 32//47
f 26//47 24//47 28//47
f 22//47 30//47 24//47
f 22//47 20//47 18//47
f 14//47 12//47 16//47
f 92//47 86//47 2//47
f 6//47 12//47 8//47
f 24//47 30//47 28//47
f 36//47 34//47 32//47
f 86//47 82//47 78//47
f 86//47 6//47 2//47
f 93//49 94//49 95//49
f 12//47 10//47 8//47
f 46//59 44//59 50//59
f 44//59 38//59 50//59
f 12//47 38//47 18//47
f 30//47 38//47 36//47
f 66//47 58//47 56//47
f 12//47 6//47 38//47
f 66//47 62//47 60//47
f 86//47 78//47 70//47
f 92//60 2//60 96//60
f 38//47 22//47 18//47
f 38//47 30//47 22//47
f 78//47 74//47 72//47
f 6//47 86//47 70//47
f 70//47 54//47 38//47
f 38//61 54//61 50//61
f 95//62 96//62 1//62
f 54//47 70//47 66//47
f 7//50 1//50 5//50
f 7//50 9//50 11//50
f 11//50 13//50 15//50
f 19//50 23//50 17//50
f 19//50 21//50 23//50
f 23//50 25//50 27//50
f 31//50 23//50 29//50
f 31//50 33//50 35//50
f 39//50 43//50 37//50
f 39//50 41//50 43//50
f 47//63 49//63 45//63
f 95//64 7//64 11//64
f 55//65 49//65 53//65
f 59//50 65//50 57//50
f 63//50 65//50 61//50
f 67//50 71//50 65//50
f 67//50 69//50 71//50
f 71//50 73//50 75//50
f 75//50 77//50 79//50
f 83//50 85//50 81//50
f 85//50 79//50 81//50
f 91//50 85//50 89//50
f 91//66 93//66 95//66
f 1//50 3//50 5//50
f 15//50 95//50 11//50
f 23//50 27//50 29//50
f 65//50 59//50 61//50
f 65//50 71//50 55//50
f 65//50 55//50 57//50
f 49//50 51//50 53//50
f 85//50 87//50 89//50
f 23//50 15//50 17//50
f 71//50 75//50 79//50
f 49//50 35//50 43//50
f 95//63 85//63 91//63
f 7//50 95//50 1//50
f 15//50 23//50 31//50
f 49//50 55//50 31//50
f 43//50 35//50 37//50
f 79//50 55//50 71//50
f 79//50 85//50 95//50
f 95//50 15//50 31//50
f 49//50 31//50 35//50
f 31//50 55//50 95//50
f 49//50 43//50 45//50
