# Blender v2.70 (sub 0) OBJ File: 'tooth.blend'
# www.blender.org
mtllib tooth.mtl
o tooth
v 0.076705 0.446877 0.087667
v 0.076705 -0.446878 0.087667
v -0.026064 0.413000 -0.092021
v 0.025654 0.413000 -0.092118
v 0.025654 -0.413000 -0.092118
v -0.026064 -0.413000 -0.092020
v -0.076703 0.446877 0.087711
v -0.076703 -0.446878 0.087711
v 0.054386 0.442112 -0.026607
v 0.072261 0.446675 0.082582
v 0.072261 -0.446676 0.082582
v 0.054386 -0.442112 -0.026607
v -0.050905 -0.490489 -0.026306
v 0.050638 -0.490490 -0.026499
v 0.068480 -0.495493 0.082480
v -0.068492 -0.495494 0.082487
v -0.054652 -0.442113 -0.026400
v -0.072272 -0.446675 0.082587
v -0.072272 0.446675 0.082588
v -0.054652 0.442112 -0.026401
v 0.050638 0.490490 -0.026499
v -0.050905 0.490490 -0.026306
v -0.068492 0.495493 0.082487
v 0.068480 0.495493 0.082479
v 0.031043 0.414587 -0.087848
v 0.051904 0.439436 -0.035607
v 0.051904 -0.439436 -0.035607
v 0.031043 -0.414588 -0.087847
v -0.027388 -0.460737 -0.087736
v 0.026987 -0.460737 -0.087840
v 0.047848 -0.488033 -0.035599
v -0.048134 -0.488033 -0.035417
v -0.031444 -0.414587 -0.087728
v -0.052189 -0.439436 -0.035410
v -0.052189 0.439436 -0.035409
v -0.031444 0.414587 -0.087729
v 0.026987 0.460737 -0.087839
v -0.027388 0.460737 -0.087736
v -0.048133 0.488033 -0.035418
v 0.047848 0.488033 -0.035600
v 0.072261 0.490663 0.082582
v 0.072679 0.495715 0.092111
v 0.076705 0.490885 0.087667
v -0.072272 0.490663 0.082588
v -0.076703 0.490885 0.087711
v -0.072670 0.495715 0.092118
v 0.072261 -0.490664 0.082582
v 0.076705 -0.490885 0.087667
v 0.072679 -0.495715 0.092112
v -0.072670 -0.495715 0.092118
v -0.076703 -0.490885 0.087711
v -0.072272 -0.490663 0.082587
v 0.054386 0.485650 -0.026607
v 0.051904 0.482711 -0.035607
v 0.051904 -0.482710 -0.035607
v 0.054386 -0.485650 -0.026607
v -0.054652 -0.485651 -0.026400
v -0.052189 -0.482710 -0.035410
v -0.052189 0.482711 -0.035409
v -0.054652 0.485650 -0.026401
v 0.031043 0.455415 -0.087848
v 0.025654 0.453671 -0.092118
v 0.025654 -0.453672 -0.092118
v 0.031043 -0.455415 -0.087847
v -0.031444 -0.455415 -0.087728
v -0.026064 -0.453672 -0.092020
v -0.026064 0.453671 -0.092020
v -0.031444 0.455415 -0.087729
v 0.076705 0.446877 0.087667
v 0.076705 -0.446878 0.087667
v -0.026064 0.413000 -0.092021
v 0.025654 0.413000 -0.092118
v 0.025654 -0.413000 -0.092118
v -0.026064 -0.413000 -0.092020
v -0.076703 0.446877 0.087711
v -0.076703 -0.446878 0.087711
v 0.054386 0.442112 -0.026607
v 0.072261 0.446675 0.082582
v 0.072261 -0.446676 0.082582
v 0.054386 -0.442112 -0.026607
v -0.050905 -0.490489 -0.026306
v 0.050638 -0.490490 -0.026499
v 0.068480 -0.495493 0.082480
v -0.068492 -0.495494 0.082487
v -0.054652 -0.442113 -0.026400
v -0.072272 -0.446675 0.082587
v -0.072272 0.446675 0.082588
v -0.054652 0.442112 -0.026401
v 0.050638 0.490490 -0.026499
v -0.050905 0.490490 -0.026306
v -0.068492 0.495493 0.082487
v 0.068480 0.495493 0.082479
v 0.031043 0.414587 -0.087848
v 0.051904 0.439436 -0.035607
v 0.051904 -0.439436 -0.035607
v 0.031043 -0.414588 -0.087847
v -0.027388 -0.460737 -0.087736
v 0.026987 -0.460737 -0.087840
v 0.047848 -0.488033 -0.035599
v -0.048134 -0.488033 -0.035417
v -0.031444 -0.414587 -0.087728
v -0.052189 -0.439436 -0.035410
v -0.052189 0.439436 -0.035409
v -0.031444 0.414587 -0.087729
v 0.026987 0.460737 -0.087839
v -0.027388 0.460737 -0.087736
v -0.048133 0.488033 -0.035418
v 0.047848 0.488033 -0.035600
v 0.072261 0.490663 0.082582
v 0.072679 0.495715 0.092111
v 0.076705 0.490885 0.087667
v -0.072272 0.490663 0.082588
v -0.076703 0.490885 0.087711
v -0.072670 0.495715 0.092118
v 0.072261 -0.490664 0.082582
v 0.076705 -0.490885 0.087667
v 0.072679 -0.495715 0.092112
v -0.072670 -0.495715 0.092118
v -0.076703 -0.490885 0.087711
v -0.072272 -0.490663 0.082587
v 0.054386 0.485650 -0.026607
v 0.051904 0.482711 -0.035607
v 0.051904 -0.482710 -0.035607
v 0.054386 -0.485650 -0.026607
v -0.054652 -0.485651 -0.026400
v -0.052189 -0.482710 -0.035410
v -0.052189 0.482711 -0.035409
v -0.054652 0.485650 -0.026401
v 0.031043 0.455415 -0.087848
v 0.025654 0.453671 -0.092118
v 0.025654 -0.453672 -0.092118
v 0.031043 -0.455415 -0.087847
v -0.031444 -0.455415 -0.087728
v -0.026064 -0.453672 -0.092020
v -0.026064 0.453671 -0.092020
v -0.031444 0.455415 -0.087729
vn -0.001887 -0.000000 -0.999998
vn -0.001904 0.000000 -0.999998
vn 0.986863 0.000000 -0.161560
vn -0.000095 -0.998949 -0.045842
vn -0.987183 0.000000 -0.159591
vn -0.000003 0.998944 -0.045944
vn 0.928691 0.000000 -0.370855
vn -0.000878 -0.886452 -0.462820
vn -0.929593 0.000000 -0.368587
vn -0.000880 0.886447 -0.462829
vn 0.596841 0.752827 -0.277549
vn -0.598172 0.752051 -0.276784
vn 0.644635 -0.492410 -0.584789
vn -0.646859 -0.494013 -0.580969
vn 0.725149 0.570114 -0.386171
vn 0.725194 -0.570077 -0.386142
vn -0.726188 -0.569903 -0.384528
vn -0.726215 0.569883 -0.384507
vn 0.496150 0.379315 -0.780996
vn 0.496270 -0.379282 -0.780936
vn -0.498913 -0.379045 -0.779365
vn -0.498840 0.379128 -0.779372
vn 0.752996 0.000000 -0.658026
vn -0.756328 0.000000 -0.654193
vn -0.000001 0.999736 -0.022998
vn 0.000004 -0.999735 -0.023016
vn 0.964029 -0.000000 -0.265797
vn -0.000494 -0.965475 -0.260495
vn -0.964599 -0.000000 -0.263720
vn -0.000494 0.965484 -0.260463
vn 0.779406 0.606925 -0.155463
vn 0.779410 -0.606919 -0.155466
vn -0.779768 -0.606841 -0.153970
vn -0.779765 0.606845 -0.153968
vn 0.621061 -0.000001 -0.783762
vn -0.001628 -0.518221 -0.855245
vn -0.623595 -0.000001 -0.781747
vn -0.001614 0.518268 -0.855217
vn 0.671197 0.512337 -0.535729
vn 0.671160 -0.512378 -0.535737
vn -0.672871 -0.512014 -0.533934
vn -0.672921 0.511970 -0.533914
vn 0.986863 0.000000 -0.161561
vn -0.987183 0.000000 -0.159590
vn 0.928693 0.000000 -0.370850
vn -0.929593 0.000000 -0.368588
vn -0.929591 0.000000 -0.368593
vn 0.752995 0.000000 -0.658027
vn -0.756327 0.000000 -0.654193
vn 0.964024 0.000000 -0.265817
vn -0.964605 0.000000 -0.263700
vn 0.621130 0.000000 -0.783708
vn 0.621062 0.000000 -0.783762
vn -0.623594 0.000000 -0.781748
vn -0.623601 0.000000 -0.781743
vn 0.000003 -0.998944 -0.045949
vn -0.000094 0.998949 -0.045843
vn -0.000880 -0.886451 -0.462822
vn -0.000879 0.886448 -0.462827
vn 0.644687 0.492289 -0.584834
vn -0.646865 0.494103 -0.580885
vn 0.596774 -0.752884 -0.277537
vn -0.598154 -0.752084 -0.276734
vn 0.736268 0.561667 -0.377412
vn 0.736205 -0.561712 -0.377467
vn -0.737385 -0.561374 -0.375663
vn -0.737408 0.561357 -0.375642
vn 0.752995 0.000000 -0.658026
vn -0.756327 0.000000 -0.654194
vn -0.000001 -0.999737 -0.022953
vn -0.000503 -0.965452 -0.260579
vn -0.964605 0.000000 -0.263701
vn -0.000501 0.965466 -0.260530
vn 0.779392 0.606943 -0.155459
vn 0.779352 -0.606996 -0.155454
vn -0.779726 -0.606896 -0.153963
vn -0.779718 0.606908 -0.153960
vn 0.621130 0.000000 -0.783707
vn -0.001625 -0.518234 -0.855237
vn -0.623600 -0.000001 -0.781744
vn -0.001626 0.518200 -0.855258
vn 0.671225 0.512311 -0.535719
vn 0.671252 -0.512286 -0.535708
vn -0.672885 -0.512002 -0.533929
vn -0.672819 0.512069 -0.533948
vn 0.621060 0.000000 -0.783763
vn -0.623595 0.000000 -0.781748
vn -0.623600 0.000000 -0.781743
usemtl gears.009
s 1
f 4//1 5//2 6//2
s off
f 9//3 10//3 11//3
f 13//4 14//4 15//4
f 17//5 18//5 19//5
f 22//6 23//6 24//6
f 26//7 27//7 28//7
f 30//8 31//8 32//8
f 34//9 35//9 36//9
f 37//10 38//10 39//10
f 24//11 42//11 43//11
f 45//12 46//12 23//12
f 15//13 47//13 48//13
f 51//14 52//14 16//14
f 21//15 53//15 54//15
f 55//16 56//16 14//16
f 13//17 57//17 58//17
f 59//18 60//18 22//18
f 61//19 62//19 37//19
f 30//20 63//20 64//20
f 65//21 66//21 29//21
f 38//22 67//22 68//22
f 1//23 2//23 11//23
f 8//24 7//24 19//24
f 42//25 24//25 23//25
f 16//26 15//26 49//26
f 9//27 12//27 27//27
f 13//28 32//28 31//28
f 17//29 20//29 35//29
f 40//30 39//30 22//30
f 21//31 24//31 41//31
f 14//32 56//32 47//32
f 13//33 16//33 52//33
f 22//34 60//34 44//34
f 4//35 25//35 28//35
f 29//36 66//36 63//36
f 33//37 36//37 3//37
f 62//38 67//38 38//38
f 61//39 37//39 40//39
f 64//40 55//40 31//40
f 65//41 29//41 32//41
f 68//42 59//42 39//42
s 1
f 5//2 63//2 66//2
f 4//1 3//1 67//1
s off
f 12//43 11//43 47//43
f 9//3 53//3 41//3
f 20//44 19//44 44//44
f 17//5 57//5 52//5
f 28//7 27//7 55//7
f 25//45 61//45 54//45
f 36//46 35//46 59//46
f 33//47 65//47 58//47
f 11//48 2//48 48//48
f 10//23 41//23 43//23
f 19//49 7//49 45//49
f 18//49 52//49 51//49
f 27//27 12//27 56//27
f 26//50 54//50 53//50
f 35//29 20//29 60//29
f 34//51 58//51 57//51
f 5//52 28//52 64//52
f 4//53 62//53 61//53
f 3//54 36//54 68//54
f 6//55 66//55 65//55
s 1
f 72//1 73//2 74//2
s off
f 77//3 78//3 79//3
f 81//4 82//4 83//4
f 85//5 86//5 87//5
f 90//6 91//6 92//6
f 94//7 95//7 96//7
f 98//8 99//8 100//8
f 102//9 103//9 104//9
f 105//10 106//10 107//10
f 92//11 110//11 111//11
f 113//12 114//12 91//12
f 83//13 115//13 116//13
f 119//14 120//14 84//14
f 89//15 121//15 122//15
f 123//16 124//16 82//16
f 81//17 125//17 126//17
f 127//18 128//18 90//18
f 129//19 130//19 105//19
f 98//20 131//20 132//20
f 133//21 134//21 97//21
f 106//22 135//22 136//22
f 69//23 70//23 79//23
f 76//24 75//24 87//24
f 110//25 92//25 91//25
f 84//26 83//26 117//26
f 77//27 80//27 95//27
f 81//28 100//28 99//28
f 85//29 88//29 103//29
f 108//30 107//30 90//30
f 89//31 92//31 109//31
f 82//32 124//32 115//32
f 81//33 84//33 120//33
f 90//34 128//34 112//34
f 72//35 93//35 96//35
f 97//36 134//36 131//36
f 101//37 104//37 71//37
f 130//38 135//38 106//38
f 129//39 105//39 108//39
f 132//40 123//40 99//40
f 133//41 97//41 100//41
f 136//42 127//42 107//42
s 1
f 73//2 131//2 134//2
f 72//1 71//1 135//1
s off
f 80//43 79//43 115//43
f 77//3 121//3 109//3
f 88//44 87//44 112//44
f 85//5 125//5 120//5
f 96//7 95//7 123//7
f 93//45 129//45 122//45
f 104//46 103//46 127//46
f 101//47 133//47 126//47
f 79//48 70//48 116//48
f 78//23 109//23 111//23
f 87//49 75//49 113//49
f 86//49 120//49 119//49
f 95//27 80//27 124//27
f 94//50 122//50 121//50
f 103//29 88//29 128//29
f 102//51 126//51 125//51
f 73//52 96//52 132//52
f 72//53 130//53 129//53
f 71//54 104//54 136//54
f 74//55 134//55 133//55
s 1
f 3//1 4//1 6//2
s off
f 12//43 9//43 11//43
f 16//56 13//56 15//56
f 20//44 17//44 19//44
f 21//57 22//57 24//57
f 25//45 26//45 28//45
f 29//58 30//58 32//58
f 33//47 34//47 36//47
f 40//59 37//59 39//59
f 41//60 24//60 43//60
f 44//61 45//61 23//61
f 49//62 15//62 48//62
f 50//63 51//63 16//63
f 40//64 21//64 54//64
f 31//65 55//65 14//65
f 32//66 13//66 58//66
f 39//67 59//67 22//67
f 10//68 1//68 11//68
f 18//69 8//69 19//69
f 46//25 42//25 23//25
f 50//70 16//70 49//70
f 26//50 9//50 27//50
f 14//71 13//71 31//71
f 34//72 17//72 35//72
f 21//73 40//73 22//73
f 53//74 21//74 41//74
f 15//75 14//75 47//75
f 57//76 13//76 52//76
f 23//77 22//77 44//77
f 5//78 4//78 28//78
f 30//79 29//79 63//79
f 6//80 33//80 3//80
f 37//81 62//81 38//81
f 54//82 61//82 40//82
f 30//83 64//83 31//83
f 58//84 65//84 32//84
f 38//85 68//85 39//85
s 1
f 6//2 5//2 66//2
f 62//1 4//1 67//1
s off
f 56//43 12//43 47//43
f 10//3 9//3 41//3
f 60//44 20//44 44//44
f 18//5 17//5 52//5
f 64//7 28//7 55//7
f 26//45 25//45 54//45
f 68//46 36//46 59//46
f 34//47 33//47 58//47
f 47//68 11//68 48//68
f 1//68 10//68 43//68
f 44//69 19//69 45//69
f 8//49 18//49 51//49
f 55//27 27//27 56//27
f 9//50 26//50 53//50
f 59//29 35//29 60//29
f 17//72 34//72 57//72
f 63//52 5//52 64//52
f 25//86 4//86 61//86
f 67//87 3//87 68//87
f 33//88 6//88 65//88
s 1
f 71//1 72//1 74//2
s off
f 80//43 77//43 79//43
f 84//56 81//56 83//56
f 88//44 85//44 87//44
f 89//57 90//57 92//57
f 93//45 94//45 96//45
f 97//58 98//58 100//58
f 101//47 102//47 104//47
f 108//59 105//59 107//59
f 109//60 92//60 111//60
f 112//61 113//61 91//61
f 117//62 83//62 116//62
f 118//63 119//63 84//63
f 108//64 89//64 122//64
f 99//65 123//65 82//65
f 100//66 81//66 126//66
f 107//67 127//67 90//67
f 78//68 69//68 79//68
f 86//69 76//69 87//69
f 114//25 110//25 91//25
f 118//70 84//70 117//70
f 94//50 77//50 95//50
f 82//71 81//71 99//71
f 102//72 85//72 103//72
f 89//73 108//73 90//73
f 121//74 89//74 109//74
f 83//75 82//75 115//75
f 125//76 81//76 120//76
f 91//77 90//77 112//77
f 73//78 72//78 96//78
f 98//79 97//79 131//79
f 74//80 101//80 71//80
f 105//81 130//81 106//81
f 122//82 129//82 108//82
f 98//83 132//83 99//83
f 126//84 133//84 100//84
f 106//85 136//85 107//85
s 1
f 74//2 73//2 134//2
f 130//1 72//1 135//1
s off
f 124//43 80//43 115//43
f 78//3 77//3 109//3
f 128//44 88//44 112//44
f 86//5 85//5 120//5
f 132//7 96//7 123//7
f 94//45 93//45 122//45
f 136//46 104//46 127//46
f 102//47 101//47 126//47
f 115//68 79//68 116//68
f 69//68 78//68 111//68
f 112//69 87//69 113//69
f 76//49 86//49 119//49
f 123//27 95//27 124//27
f 77//50 94//50 121//50
f 127//29 103//29 128//29
f 85//72 102//72 125//72
f 131//52 73//52 132//52
f 93//86 72//86 129//86
f 135//87 71//87 136//87
f 101//88 74//88 133//88
